<svg xmlns="http://www.w3.org/2000/svg" width="301" height="300" viewBox="0 0 301 300">
    <defs>
        <linearGradient id="j8y4h7yk2a" x1="50%" x2="50%" y1="0%" y2="100%">
            <stop offset="0%" stop-color="#00B0FF"/>
            <stop offset="100%" stop-color="#0079F5"/>
        </linearGradient>
    </defs>
    <g fill="none" fill-opacity=".4" fill-rule="evenodd">
        <g fill="url(#j8y4h7yk2a)" fill-rule="nonzero" transform="translate(-867 -337)">
            <g>
                <g>
                    <g>
                        <path d="M120.088 0l1.409.007 1.327.021 1.249.035 1.175.049 1.105.062 1.039.076c2.182.18 3.929.455 5.424.822l.672.176c.11.03.218.062.324.093l.627.195.6.209.58.22.56.235c.093.04.185.08.276.121l.542.253.269.13.532.272.265.14c3.803 2.034 6.787 5.018 8.82 8.82l.278.532.134.266.26.538.124.273.24.554.115.282.221.58.209.6.195.627.093.324.176.672c.339 1.38.6 2.974.779 4.928l.083 1.008.069 1.071.03.561.048 1.175.035 1.25.021 1.326.007 1.409v240.176l-.007 1.409-.021 1.327-.035 1.249-.049 1.175-.062 1.105-.076 1.039c-.18 2.182-.455 3.929-.822 5.424l-.176.672c-.03.11-.062.218-.093.324l-.195.627-.209.6-.22.58-.235.56c-.04.093-.08.185-.121.276l-.253.542-.13.269-.272.532-.14.265c-2.034 3.803-5.018 6.787-8.82 8.82l-.532.278-.266.134-.538.26-.273.124-.554.24-.282.115-.58.221-.6.209-.627.195-.324.093-.672.176c-1.38.339-2.974.6-4.928.779l-1.008.083-1.071.069-.561.03-1.175.048-1.25.035-1.326.021-1.409.007H29.912l-1.409-.007-1.327-.021-1.249-.035-1.175-.049-1.105-.062-1.039-.076c-2.182-.18-3.929-.455-5.424-.822l-.672-.176c-.11-.03-.218-.062-.324-.093l-.627-.195-.6-.209-.58-.22-.56-.235c-.093-.04-.185-.08-.276-.121l-.542-.253-.269-.13-.532-.272-.265-.14c-3.803-2.034-6.787-5.018-8.82-8.82l-.278-.532-.134-.266-.26-.538-.124-.273-.24-.554-.115-.282-.221-.58-.209-.6-.195-.627-.093-.324-.176-.672c-.339-1.38-.6-2.974-.779-4.928L.21 276.88l-.069-1.071-.03-.561-.048-1.175-.035-1.25-.021-1.326L0 270.088.002 29.197l.014-1.367c.003-.222.007-.44.012-.654l.035-1.249.049-1.175.062-1.105.076-1.039c.18-2.182.455-3.929.822-5.424l.176-.672c.03-.11.062-.218.093-.324l.195-.627.209-.6.22-.58.235-.56c.04-.093.08-.185.121-.276l.253-.542.13-.269.272-.532.14-.265c2.034-3.803 5.018-6.787 8.82-8.82l.532-.278.266-.134.538-.26.273-.124.554-.24.282-.115.58-.221.6-.209.627-.195.324-.093.672-.176c1.38-.339 2.974-.6 4.928-.779L23.12.21 24.19.141l.561-.03 1.175-.048 1.25-.035 1.326-.021L29.912 0h90.176zm176.667 0l1.409.007 1.327.021 1.248.035 1.175.049 1.105.062 1.04.076c2.182.18 3.929.455 5.423.822l.673.176c.11.03.217.062.324.093l.627.195.6.209.58.22.56.235c.093.04.185.08.276.121l.542.253.268.13.533.272.265.14c3.802 2.034 6.787 5.018 8.82 8.82l.278.532.134.266.259.538.125.273.24.554.115.282.22.58.21.6.195.627c.031.106.062.214.092.324l.176.672c.34 1.38.6 2.974.78 4.928l.082 1.008.07 1.071.03.561.048 1.175.035 1.25.02 1.326.008 1.409v240.176l-.007 1.409-.021 1.327-.035 1.249-.049 1.175-.062 1.105-.076 1.039c-.18 2.182-.455 3.929-.823 5.424l-.176.672c-.03.11-.06.218-.092.324l-.196.627-.208.6-.221.58-.234.56-.121.276-.253.542-.131.269-.272.532-.14.265c-2.033 3.803-5.018 6.787-8.82 8.82l-.531.278-.267.134-.538.26-.272.124-.554.24-.283.115-.579.221-.6.209-.627.195-.324.093-.673.176c-1.38.339-2.974.6-4.928.779l-1.007.083-1.072.069-.56.03-1.176.048-1.248.035-1.327.021-1.41.007H206.58l-1.41-.007-1.326-.021-1.25-.035-1.174-.049-1.105-.062-1.04-.076c-2.182-.18-3.928-.455-5.423-.822l-.673-.176c-.109-.03-.217-.062-.324-.093l-.626-.195-.6-.209-.58-.22-.561-.235-.276-.121-.542-.253-.268-.13-.532-.272-.266-.14c-3.802-2.034-6.786-5.018-8.82-8.82l-.277-.532c-.046-.089-.09-.177-.134-.266l-.26-.538c-.042-.09-.083-.182-.124-.273l-.24-.554c-.04-.093-.078-.188-.116-.282l-.22-.58-.209-.6-.195-.627c-.032-.106-.063-.214-.093-.324l-.176-.672c-.34-1.38-.6-2.974-.779-4.928l-.083-1.008-.07-1.071-.029-.561-.048-1.175-.035-1.25-.021-1.326-.007-1.409.001-240.891.014-1.367.013-.654.035-1.249.048-1.175.063-1.105.076-1.039c.18-2.182.455-3.929.822-5.424l.176-.672c.03-.11.061-.218.093-.324l.195-.627.208-.6.221-.58.234-.56c.04-.093.08-.185.122-.276l.252-.542c.044-.09.087-.18.132-.269l.27-.532.141-.265c2.034-3.803 5.018-6.787 8.82-8.82l.532-.278.266-.134.538-.26.272-.124.554-.24.283-.115.58-.221.6-.209.626-.195.324-.093.673-.176c1.38-.339 2.974-.6 4.928-.779l1.007-.083 1.072-.069.56-.03 1.176-.048 1.249-.035 1.327-.021L206.579 0h90.176zM473.42 0l1.41.007 1.326.021 1.25.035 1.174.049 1.105.062 1.04.076c2.182.18 3.928.455 5.423.822l.673.176c.109.03.217.062.324.093l.626.195.6.209.58.22.561.235.276.121.542.253.268.13.532.272.266.14c3.802 2.034 6.786 5.018 8.82 8.82l.277.532c.046.089.09.177.134.266l.26.538c.042.09.083.182.124.273l.24.554c.04.093.078.188.116.282l.22.58.209.6.195.627c.032.106.063.214.093.324l.176.672c.34 1.38.6 2.974.779 4.928l.083 1.008.07 1.071.029.561.048 1.175.035 1.25.021 1.326.007 1.409v240.176l-.007 1.409-.02 1.327-.036 1.249-.048 1.175-.063 1.105-.076 1.039c-.18 2.182-.455 3.929-.822 5.424l-.176.672c-.03.11-.061.218-.093.324l-.195.627-.208.6-.221.58-.234.56c-.04.093-.08.185-.122.276l-.252.542c-.044.09-.087.18-.132.269l-.27.532-.141.265c-2.034 3.803-5.018 6.787-8.82 8.82l-.532.278-.266.134-.538.26-.272.124-.554.24-.283.115-.58.221-.6.209-.626.195-.324.093-.673.176c-1.38.339-2.974.6-4.928.779l-1.007.083-1.072.069-.56.03-1.176.048-1.249.035-1.327.021-1.409.007h-90.176l-1.409-.007-1.327-.021-1.248-.035-1.175-.049-1.105-.062-1.04-.076c-2.182-.18-3.929-.455-5.423-.822l-.673-.176c-.11-.03-.217-.062-.324-.093l-.627-.195-.6-.209-.58-.22-.56-.235c-.093-.04-.185-.08-.276-.121l-.542-.253-.268-.13-.533-.272-.265-.14c-3.802-2.034-6.787-5.018-8.82-8.82l-.278-.532-.134-.266-.259-.538-.125-.273-.24-.554-.115-.282-.22-.58-.21-.6-.195-.627c-.031-.106-.062-.214-.092-.324l-.176-.672c-.34-1.38-.6-2.974-.78-4.928l-.082-1.008-.07-1.071-.03-.561-.048-1.175-.035-1.25-.02-1.326-.008-1.409.002-240.891.014-1.367.012-.654.035-1.249.049-1.175.062-1.105.076-1.039c.18-2.182.455-3.929.823-5.424l.176-.672c.03-.11.06-.218.092-.324l.196-.627.208-.6.221-.58.234-.56.121-.276.253-.542.131-.269.272-.532.14-.265c2.033-3.803 5.018-6.787 8.82-8.82l.531-.278.267-.134.538-.26.272-.124.554-.24.283-.115.579-.221.6-.209.627-.195.324-.093.673-.176c1.38-.339 2.974-.6 4.928-.779l1.007-.083 1.072-.069.56-.03 1.176-.048 1.248-.035 1.327-.021 1.41-.007h90.175zM120.824 3.333H29.912l-1.448.007-1.355.02-1.268.035-1.186.05-1.11.065-.527.038-1.006.09c-3.246.327-5.454.939-7.56 1.94l-.629.313c-.105.054-.21.109-.314.165-3.222 1.723-5.73 4.231-7.453 7.453l-.165.314-.312.63c-1.002 2.105-1.614 4.313-1.941 7.559l-.09 1.006-.038.528-.066 1.11-.05 1.185-.034 1.268-.02 1.355-.005.712-.002 240.912c0 .499.003.981.007 1.448l.02 1.355.035 1.268.05 1.186.065 1.11.038.527.09 1.006c.327 3.246.939 5.454 1.94 7.56l.313.629c.054.105.109.21.165.314 1.723 3.222 4.231 5.73 7.453 7.453l.314.165.63.312c2.105 1.002 4.313 1.614 7.559 1.941l1.006.09.528.038 1.11.066 1.185.05 1.268.034 1.355.02 1.448.007h90.176c.499 0 .981 0 1.448-.007l1.355-.02 1.268-.035 1.186-.05 1.11-.065.527-.038 1.006-.09c3.246-.327 5.454-.939 7.56-1.94l.629-.313c.105-.054.21-.109.314-.165 3.222-1.723 5.73-4.231 7.453-7.453l.165-.314.312-.63c1.002-2.105 1.614-4.313 1.941-7.559l.09-1.006.038-.528.066-1.11.05-1.185.034-1.268.02-1.355.007-1.448V29.912c0-.499-.003-.981-.007-1.448l-.02-1.355-.035-1.268-.05-1.186-.065-1.11-.038-.527-.09-1.006c-.327-3.246-.939-5.454-1.94-7.56l-.313-.629c-.054-.105-.109-.21-.165-.314-1.723-3.222-4.231-5.73-7.453-7.453l-.314-.165-.63-.312c-2.105-1.002-4.313-1.614-7.559-1.941l-1.006-.09-.528-.038-1.11-.066-1.185-.05-1.268-.034-1.355-.02c-.233-.002-.47-.007-.712-.007zm176.667 0h-90.912l-1.449.007-1.355.02-1.267.035-1.186.05-1.11.065-.528.038-1.005.09c-3.246.327-5.454.939-7.56 1.94l-.63.313-.314.165c-3.221 1.723-5.73 4.231-7.452 7.453l-.166.314-.312.63c-1.001 2.105-1.614 4.313-1.94 7.559l-.09 1.006c-.014.173-.027.349-.039.528l-.065 1.11-.05 1.185-.034 1.268-.02 1.355c-.003.233-.005.47-.005.712v241.648l.014 1.44c.003.233.007.46.012.685l.037 1.3.052 1.213c.02.391.043.769.069 1.134l.086 1.06c.301 3.243.872 5.464 1.809 7.537l.308.651c.107.216.218.431.334.647 1.723 3.222 4.23 5.73 7.452 7.453l.315.165.63.312c2.105 1.002 4.313 1.614 7.559 1.941l1.005.09.528.038 1.11.066 1.186.05 1.267.034 1.355.02 1.449.007h90.176c.499 0 .981 0 1.448-.007l1.355-.02 1.268-.035 1.185-.05 1.11-.065.528-.038 1.006-.09c3.245-.327 5.454-.939 7.56-1.94l.629-.313c.104-.054.21-.109.314-.165 3.221-1.723 5.73-4.231 7.453-7.453l.165-.314.312-.63c1.002-2.105 1.614-4.313 1.94-7.559l.09-1.006.04-.528.064-1.11.05-1.185.034-1.268.02-1.355.007-1.448V29.912c0-.499-.002-.981-.006-1.448l-.02-1.355-.035-1.268-.05-1.186-.065-1.11-.038-.527-.09-1.006c-.327-3.246-.94-5.454-1.94-7.56l-.313-.629c-.054-.105-.11-.21-.165-.314-1.723-3.222-4.232-5.73-7.453-7.453l-.314-.165-.63-.312c-2.105-1.002-4.314-1.614-7.56-1.941l-1.005-.09-.528-.038-1.11-.066-1.185-.05-1.268-.034-1.355-.02c-.234-.002-.47-.007-.712-.007zm176.666 0h-90.912l-1.448.007-1.355.02-1.268.035-1.185.05-1.11.065-.528.038-1.006.09c-3.245.327-5.454.939-7.56 1.94l-.629.313c-.104.054-.21.109-.314.165-3.221 1.723-5.73 4.231-7.453 7.453l-.165.314-.312.63c-1.002 2.105-1.614 4.313-1.94 7.559l-.09 1.006-.04.528-.064 1.11-.05 1.185-.034 1.268-.02 1.355c-.003.233-.006.47-.006.712v241.648l.014 1.44.013.685.036 1.3.053 1.213c.02.391.043.769.069 1.134l.086 1.06c.3 3.243.871 5.464 1.809 7.537l.308.651c.107.216.218.431.333.647 1.723 3.222 4.232 5.73 7.453 7.453l.314.165.63.312c2.105 1.002 4.314 1.614 7.56 1.941l1.005.09.528.038 1.11.066 1.185.05 1.268.034 1.355.02 1.448.007h90.176c.5 0 .982 0 1.449-.007l1.355-.02 1.267-.035 1.186-.05 1.11-.065.528-.038 1.005-.09c3.246-.327 5.454-.939 7.56-1.94l.63-.313.314-.165c3.221-1.723 5.73-4.231 7.452-7.453l.166-.314.312-.63c1.001-2.105 1.614-4.313 1.94-7.559l.09-1.006c.014-.173.027-.349.039-.528l.065-1.11.05-1.185.034-1.268.02-1.355.007-1.448V29.912c0-.499-.002-.981-.007-1.448l-.02-1.355-.035-1.268-.05-1.186-.064-1.11c-.012-.178-.025-.354-.039-.527l-.09-1.006c-.326-3.246-.939-5.454-1.94-7.56l-.312-.629-.166-.314c-1.723-3.222-4.23-5.73-7.452-7.453l-.315-.165-.63-.312c-2.105-1.002-4.313-1.614-7.559-1.941l-1.005-.09-.528-.038-1.11-.066-1.186-.05-1.267-.034-1.355-.02c-.234-.002-.471-.007-.713-.007z" transform="translate(368 288) translate(0 10) translate(499 39)"/>
                    </g>
                </g>
            </g>
        </g>
    </g>
</svg>
