<svg width="33" height="21" viewBox="0 0 33 21" fill="none" xmlns="http://www.w3.org/2000/svg">
<path fill-rule="evenodd" clip-rule="evenodd" d="M16.188 20.6357C17.7586 20.6357 19.2377 20.4465 20.6252 20.0681C22.0128 19.6897 23.2925 19.1912 24.4644 18.5728C25.6362 17.9543 26.6881 17.2747 27.6199 16.5342C28.5517 15.7936 29.3431 15.049 29.9941 14.3003C30.6452 13.5516 31.1436 12.8578 31.4895 12.219C31.8354 11.5802 32.0083 11.0654 32.0083 10.6748C32.0083 10.2842 31.8354 9.76945 31.4895 9.13062C31.1436 8.49178 30.6452 7.79801 29.9941 7.04932C29.3431 6.30062 28.5517 5.55396 27.6199 4.80933C26.6881 4.0647 25.6362 3.38517 24.4644 2.77075C23.2925 2.15633 22.0128 1.66195 20.6252 1.2876C19.2377 0.913249 17.7586 0.726074 16.188 0.726074C14.6336 0.726074 13.1688 0.913249 11.7935 1.2876C10.4181 1.66195 9.1425 2.15633 7.96655 2.77075C6.79061 3.38517 5.7347 4.0647 4.79883 4.80933C3.86296 5.55396 3.0634 6.30062 2.40015 7.04932C1.7369 7.79801 1.23031 8.49178 0.880371 9.13062C0.530436 9.76945 0.355469 10.2842 0.355469 10.6748C0.355469 11.0654 0.530436 11.5802 0.880371 12.219C1.23031 12.8578 1.73486 13.5516 2.39404 14.3003C3.05322 15.049 3.85075 15.7936 4.78662 16.5342C5.72249 17.2747 6.7784 17.9543 7.95435 18.5728C9.13029 19.1912 10.408 19.6897 11.7874 20.0681C13.1667 20.4465 14.6336 20.6357 16.188 20.6357ZM16.1997 16.6674C14.5115 16.6674 13.0729 16.073 11.884 14.884C10.695 13.6951 10.1006 12.2803 10.1006 10.6396C10.1006 8.97513 10.695 7.55438 11.884 6.37735C13.0729 5.20033 14.5115 4.61182 16.1997 4.61182C17.8642 4.61182 19.2909 5.20033 20.4798 6.37735C21.6687 7.55438 22.2632 8.97513 22.2632 10.6396C22.2632 12.2803 21.6687 13.6951 20.4798 14.884C19.2909 16.073 17.8642 16.6674 16.1997 16.6674ZM14.0042 12.8166C14.6066 13.419 15.3355 13.7202 16.1909 13.7202C17.0343 13.7202 17.7572 13.419 18.3596 12.8166C18.962 12.2142 19.2632 11.4973 19.2632 10.666C19.2632 9.82264 18.962 9.10277 18.3596 8.50639C17.7572 7.91001 17.0343 7.61182 16.1909 7.61182C15.3355 7.61182 14.6066 7.91001 14.0042 8.50639C13.4018 9.10277 13.1006 9.82264 13.1006 10.666C13.1006 11.4973 13.4018 12.2142 14.0042 12.8166Z" fill="url(#paint0_linear)"/>
<defs>
<linearGradient id="paint0_linear" x1="0.355469" y1="0.726074" x2="0.355469" y2="20.6357" gradientUnits="userSpaceOnUse">
<stop stop-color="#00B2FF"/>
<stop offset="1" stop-color="#007AFF"/>
</linearGradient>
</defs>
</svg>
