<svg width="33" height="21" viewBox="0 0 33 21" fill="none" xmlns="http://www.w3.org/2000/svg">
<path fill-rule="evenodd" clip-rule="evenodd" d="M20.6252 20.0681C19.2377 20.4465 17.7586 20.6357 16.188 20.6357C14.6336 20.6357 13.1667 20.4465 11.7874 20.0681C10.408 19.6897 9.13029 19.1912 7.95435 18.5728C6.7784 17.9543 5.72249 17.2747 4.78662 16.5342C3.85075 15.7936 3.05322 15.049 2.39404 14.3003C1.73486 13.5516 1.23031 12.8578 0.880371 12.219C0.530436 11.5802 0.355469 11.0654 0.355469 10.6748C0.355469 10.2842 0.530436 9.76945 0.880371 9.13062C1.23031 8.49178 1.7369 7.79801 2.40015 7.04932C3.0634 6.30062 3.86296 5.55396 4.79883 4.80933C5.7347 4.0647 6.79061 3.38517 7.96655 2.77075C9.1425 2.15633 10.4181 1.66195 11.7935 1.2876C13.1688 0.913249 14.6336 0.726074 16.188 0.726074C17.7586 0.726074 19.2377 0.913249 20.6252 1.2876C22.0128 1.66195 23.2925 2.15633 24.4644 2.77075C25.6362 3.38517 26.6881 4.0647 27.6199 4.80933C28.5517 5.55396 29.3431 6.30062 29.9941 7.04932C30.6452 7.79801 31.1436 8.49178 31.4895 9.13062C31.8354 9.76945 32.0083 10.2842 32.0083 10.6748C32.0083 11.0654 31.8354 11.5802 31.4895 12.219C31.1436 12.8578 30.6452 13.5516 29.9941 14.3003C29.3431 15.049 28.5517 15.7936 27.6199 16.5342C26.6881 17.2747 25.6362 17.9543 24.4644 18.5728C23.2925 19.1912 22.0128 19.6897 20.6252 20.0681ZM12.5991 18.1089C13.7466 18.4181 14.9429 18.5728 16.188 18.5728C17.425 18.5728 18.6172 18.4181 19.7646 18.1089C20.9121 17.7996 21.9843 17.3927 22.9812 16.8882C23.9781 16.3836 24.8835 15.8302 25.6973 15.228C26.5111 14.6258 27.2109 14.0297 27.7969 13.4397C28.3828 12.8497 28.8345 12.3085 29.1519 11.8162C29.4692 11.3238 29.6279 10.9434 29.6279 10.6748C29.6279 10.4469 29.4692 10.099 29.1519 9.6311C28.8345 9.16317 28.3828 8.63013 27.7969 8.03198C27.2109 7.43384 26.5111 6.82756 25.6973 6.21313C24.8835 5.59871 23.9781 5.03312 22.9812 4.51636C21.9843 3.99959 20.9121 3.58049 19.7646 3.25903C18.6172 2.93758 17.425 2.77686 16.188 2.77686C14.9429 2.77686 13.7466 2.93758 12.5991 3.25903C11.4517 3.58049 10.3774 3.99959 9.37646 4.51636C8.37549 5.03312 7.4681 5.59871 6.6543 6.21313C5.84049 6.82756 5.14062 7.43384 4.55469 8.03198C3.96875 8.63013 3.51912 9.16317 3.20581 9.6311C2.8925 10.099 2.73584 10.4469 2.73584 10.6748C2.73584 10.9434 2.8925 11.3238 3.20581 11.8162C3.51912 12.3085 3.96875 12.8497 4.55469 13.4397C5.14062 14.0297 5.84049 14.6258 6.6543 15.228C7.4681 15.8302 8.37549 16.3836 9.37646 16.8882C10.3774 17.3927 11.4517 17.7996 12.5991 18.1089ZM16.188 16.998C17.0669 16.998 17.8888 16.8312 18.6538 16.4976C19.4188 16.1639 20.0922 15.7061 20.6741 15.1243C21.2559 14.5424 21.7096 13.871 22.0352 13.1101C22.3607 12.3492 22.5234 11.5374 22.5234 10.6748C22.5234 9.50293 22.2386 8.43888 21.6689 7.48267C21.0993 6.52645 20.3363 5.76758 19.3801 5.20605C18.4239 4.64453 17.3599 4.36377 16.188 4.36377C15.008 4.36377 13.9378 4.64453 12.9775 5.20605C12.0173 5.76758 11.2523 6.52645 10.6826 7.48267C10.113 8.43888 9.83219 9.50293 9.84033 10.6748C9.84847 11.8223 10.1353 12.8741 10.7009 13.8303C11.2665 14.7865 12.0274 15.5535 12.9836 16.1313C13.9399 16.7091 15.008 16.998 16.188 16.998ZM13.2974 13.5057C14.0954 14.3036 15.0608 14.7026 16.1939 14.7026C17.3109 14.7026 18.2684 14.3036 19.0663 13.5057C19.8642 12.7078 20.2632 11.7583 20.2632 10.6572C20.2632 9.54014 19.8642 8.58664 19.0663 7.79671C18.2684 7.00678 17.3109 6.61182 16.1939 6.61182C15.0608 6.61182 14.0954 7.00678 13.2974 7.79671C12.4995 8.58664 12.1006 9.54014 12.1006 10.6572C12.1006 11.7583 12.4995 12.7078 13.2974 13.5057Z" fill="#7F89A1"/>
</svg>
